<svg xmlns="http://www.w3.org/2000/svg" xmlns:xlink="http://www.w3.org/1999/xlink" width="82.264" height="82.264" viewBox="0 0 82.264 82.264">
  <defs>
    <linearGradient id="linear-gradient" x1="0.5" x2="0.5" y2="1" gradientUnits="objectBoundingBox">
      <stop offset="0" stop-color="#ce2ad9"/>
      <stop offset="0.485" stop-color="#e23030"/>
      <stop offset="1" stop-color="#bfb418"/>
    </linearGradient>
  </defs>
  <g id="Instagram" transform="translate(-365.736 -2458)">
    <g id="Retângulo_3" data-name="Retângulo 3" transform="translate(366 2461)" fill="#fff" stroke="#707070" stroke-width="1">
      <rect width="82" height="69" stroke="none"/>
      <rect x="0.5" y="0.5" width="81" height="68" fill="none"/>
    </g>
    <path id="instagram-square-brands" d="M41.132,63.337a9.795,9.795,0,1,0,9.8,9.8A9.795,9.795,0,0,0,41.132,63.337Zm22.9-7.529a9.916,9.916,0,0,0-5.584-5.584C54.591,48.7,45.41,49.044,41.132,49.044s-13.45-.354-17.318,1.181a9.916,9.916,0,0,0-5.584,5.584C16.71,59.665,17.05,68.855,17.05,73.13s-.34,13.454,1.188,17.323a9.916,9.916,0,0,0,5.584,5.584c3.856,1.522,13.037,1.181,17.318,1.181s13.449.354,17.316-1.181a9.916,9.916,0,0,0,5.584-5.584C65.572,86.6,65.22,77.407,65.22,73.132s.353-13.452-1.181-17.321Zm-22.9,32.38a15.039,15.039,0,1,1,10.652-4.4,15.057,15.057,0,0,1-10.652,4.4ZM56.81,60.958a1.457,1.457,0,1,1,.007.007ZM73.45,32H8.814A8.814,8.814,0,0,0,0,40.814V105.45a8.814,8.814,0,0,0,8.814,8.814H73.45a8.814,8.814,0,0,0,8.814-8.814V40.814A8.814,8.814,0,0,0,73.45,32ZM70.306,85.251c-.237,4.706-1.311,8.876-4.747,12.3s-7.6,4.523-12.3,4.747c-4.85.274-19.389.274-24.238,0-4.706-.237-8.862-1.313-12.3-4.747s-4.523-7.606-4.747-12.3c-.274-4.851-.274-19.393,0-24.238.237-4.706,1.3-8.876,4.747-12.3s7.615-4.51,12.3-4.734c4.85-.274,19.389-.274,24.238,0,4.706.237,8.875,1.313,12.3,4.747s4.523,7.606,4.747,12.312C70.58,65.868,70.58,80.4,70.306,85.251Z" transform="translate(365.736 2426)" fill="url(#linear-gradient)"/>
  </g>
</svg>
